<svg width="16" height="16" viewBox="0 0 16 16" fill="none" xmlns="http://www.w3.org/2000/svg">
<path d="M8.53255 4.4694L13.5326 9.4694C13.6734 9.6103 13.7526 9.80139 13.7526 10.0007C13.7526 10.1999 13.6734 10.391 13.5326 10.5319C13.3917 10.6728 13.2006 10.752 13.0013 10.752C12.802 10.752 12.6109 10.6728 12.4701 10.5319L8.00193 6.06253L3.53255 10.5307C3.46279 10.6004 3.37996 10.6558 3.28881 10.6935C3.19766 10.7313 3.09996 10.7507 3.0013 10.7507C2.90264 10.7507 2.80494 10.7313 2.71379 10.6935C2.62264 10.6558 2.53982 10.6004 2.47005 10.5307C2.40029 10.4609 2.34495 10.3781 2.30719 10.2869C2.26943 10.1958 2.25 10.0981 2.25 9.9994C2.25 9.90074 2.26943 9.80304 2.30719 9.71189C2.34495 9.62074 2.40029 9.53792 2.47005 9.46815L7.47005 4.46815C7.53981 4.39831 7.62267 4.34293 7.71388 4.30519C7.80509 4.26744 7.90285 4.24807 8.00156 4.24818C8.10027 4.2483 8.19799 4.2679 8.28911 4.30586C8.38023 4.34382 8.46296 4.3994 8.53255 4.4694Z" fill="#FF4E00"/>
</svg>
