<svg width="16" height="16" viewBox="0 0 16 16" fill="none" xmlns="http://www.w3.org/2000/svg">
<path d="M7.46745 11.5306L2.46745 6.5306C2.32655 6.3897 2.2474 6.19861 2.2474 5.99935C2.2474 5.80009 2.32655 5.60899 2.46745 5.4681C2.60834 5.3272 2.79944 5.24805 2.9987 5.24805C3.19796 5.24805 3.38905 5.3272 3.52995 5.4681L7.99807 9.93747L12.4674 5.46935C12.5372 5.39958 12.62 5.34424 12.7112 5.30649C12.8023 5.26873 12.9 5.2493 12.9987 5.2493C13.0974 5.2493 13.1951 5.26873 13.2862 5.30649C13.3774 5.34424 13.4602 5.39958 13.5299 5.46935C13.5997 5.53911 13.6551 5.62194 13.6928 5.71309C13.7306 5.80424 13.75 5.90194 13.75 6.0006C13.75 6.09926 13.7306 6.19696 13.6928 6.28811C13.6551 6.37926 13.5997 6.46208 13.5299 6.53185L8.52995 11.5318C8.46019 11.6017 8.37733 11.6571 8.28612 11.6948C8.19491 11.7326 8.09715 11.7519 7.99844 11.7518C7.89973 11.7517 7.80201 11.7321 7.71089 11.6941C7.61977 11.6562 7.53704 11.6006 7.46745 11.5306Z" fill="#FF4E00"/>
</svg>
