<svg width="18" height="10" viewBox="0 0 18 10" fill="none" xmlns="http://www.w3.org/2000/svg">
<path d="M17.031 9.53122C16.9614 9.60095 16.8787 9.65627 16.7876 9.69401C16.6966 9.73175 16.599 9.75118 16.5004 9.75118C16.4019 9.75118 16.3043 9.73175 16.2132 9.69401C16.1222 9.65627 16.0394 9.60095 15.9698 9.53122L9.00042 2.5609L2.03104 9.53122C1.89031 9.67195 1.69944 9.75101 1.50042 9.75101C1.30139 9.75101 1.11052 9.67195 0.969792 9.53122C0.829062 9.39048 0.75 9.19961 0.75 9.00059C0.75 8.80157 0.829062 8.6107 0.969792 8.46996L8.46979 0.969965C8.53945 0.900232 8.62216 0.844914 8.71321 0.80717C8.80426 0.769427 8.90186 0.75 9.00042 0.75C9.09898 0.75 9.19657 0.769427 9.28762 0.80717C9.37867 0.844914 9.46139 0.900232 9.53104 0.969965L17.031 8.46996C17.1008 8.53962 17.1561 8.62234 17.1938 8.71338C17.2316 8.80443 17.251 8.90203 17.251 9.00059C17.251 9.09915 17.2316 9.19675 17.1938 9.2878C17.1561 9.37884 17.1008 9.46156 17.031 9.53122Z" fill="#121212"/>
</svg>
